
<svg xmlns="http://www.w3.org/2000/svg" width="205" height="40" viewBox="0 0 205 40" fill="none"><path d="M24.8018 14.8224L20.2403 0H18.997L14.8391 14.8467L19.5863 13.4331L24.8018 14.8224Z" fill="#E9EBF4"></path><path d="M14.8149 24.8144L19.3846 39.6369H20.6198L24.7777 24.7822L20.0304 26.2038L14.8149 24.8144Z" fill="#E9EBF4"></path><path d="M24.8179 24.7983L39.6248 20.2344V18.9905L24.7856 14.8386L26.1985 19.5882L24.8179 24.7983Z" fill="#E9EBF4"></path><path d="M14.8149 14.8386L0 19.4024V20.6464L14.8391 24.7983L13.4263 20.0487L14.8149 14.8386Z" fill="#E9EBF4"></path><path d="M129.531 8.16656H125.357V31.4543H129.531V8.16656Z" fill="#E9EBF4"></path><path d="M110.333 18.2878H93.6205V8.16656H89.4465V31.4543H93.6205V22.4559H110.333V31.4543H114.499V8.16656H110.333V18.2878Z" fill="#E9EBF4"></path><path d="M197.276 8.16645H185.207C183.258 8.17073 181.39 8.94773 180.013 10.3271C178.636 11.7064 177.862 13.5755 177.86 15.5251V31.4704H182.026V22.4558H200.506V31.4704H204.672V15.5251C204.671 14.5557 204.478 13.596 204.106 12.701C203.733 11.8061 203.188 10.9935 202.501 10.3099C201.814 9.62626 200.999 9.08496 200.102 8.71715C199.206 8.34935 198.245 8.1622 197.276 8.16645ZM182.026 18.2796V15.5251C182.038 14.685 182.377 13.8828 182.971 13.2886C183.565 12.6945 184.367 12.3551 185.207 12.3426H197.276C198.116 12.3551 198.918 12.6945 199.512 13.2886C200.106 13.8828 200.445 14.685 200.457 15.5251V18.2796H182.026Z" fill="#E9EBF4"></path><path d="M78.1355 8.16656L68.3907 18.2878H59.4372V8.16656H55.2632V31.4543H59.4372V22.4559H68.8428L77.4492 31.3897H82.802L71.9592 20.1376L83.4882 8.16656H78.1355Z" fill="#E9EBF4"></path><path d="M140.326 12.3426H163.699V13.2958C163.693 13.6551 163.576 14.0038 163.363 14.2933C163.151 14.5829 162.853 14.7989 162.512 14.9114L144.128 20.9615C143.013 21.3253 142.042 22.0333 141.355 22.9839C140.667 23.9346 140.298 25.0788 140.302 26.2523V29.6933V31.43H167.517V27.262H144.104V26.2765C144.108 25.9169 144.225 25.5677 144.438 25.278C144.651 24.9882 144.949 24.7724 145.291 24.661L163.674 18.6109C164.788 18.2449 165.758 17.5362 166.445 16.586C167.132 15.6359 167.502 14.4928 167.501 13.32V12.3669V8.19073H140.285L140.326 12.3426Z" fill="#E9EBF4"></path></svg>